<?xml version="1.0" encoding="UTF-8"?>
<svg id="Layer_1" data-name="Layer 1" xmlns="http://www.w3.org/2000/svg" viewBox="0 0 179.27 64.8">
  <defs>
    <style>
      .cls-1 {
        stroke: #000;
        stroke-linecap: round;
      }

      .cls-1, .cls-2 {
        stroke-miterlimit: 10;
      }

      .cls-1, .cls-3 {
        fill: #fff;
      }

      .cls-2 {
        fill: none;
        stroke: #fff;
        stroke-width: 4px;
      }
    </style>
  </defs>
  <path class="cls-3" d="M0,0h22.11c4.36,0,7.88.59,10.56,1.77,2.68,1.18,4.9,2.88,6.65,5.09,1.75,2.21,3.02,4.78,3.81,7.72.79,2.93,1.18,6.04,1.18,9.33,0,5.15-.59,9.14-1.76,11.97-1.17,2.84-2.8,5.21-4.88,7.13-2.08,1.92-4.31,3.19-6.7,3.83-3.26.88-6.22,1.31-8.87,1.31H0V0ZM20.74,16.58c-1.99-.05-3.99-.09-5.98-.14v15.14h5.93c4.25.1,7.76-3.39,7.72-7.57-.04-4.11-3.5-7.5-7.67-7.43Z"/>
  <path class="cls-3" d="M48.97.71h16.3v15.93h13.17V.71h16.71l-.33,48.26h-16.44l.1-15.88-13.25.17-.05,15.62-16.22.09V.71Z"/>
  <path class="cls-3" d="M102.07.63l15.91-.13,5.83,4.26,21.85-3,2.21,8.61-20.22,13.03,20.4,25.25h-19.83l-10.29-12.5.07-.07v12.58h-15.93V.63Z"/>
  <path class="cls-2" d="M151.93,19.14c.81.55,3.36,3.27,3.18,7.35-.13,2.86-1.97,5.67-2.77,6.45-.17.16-.31.3-.41.39"/>
  <path class="cls-2" d="M160,13.77c1.43.97,5.89,5.74,5.58,12.91-.22,5.01-3.45,9.95-4.86,11.33-.29.29-.54.52-.72.69"/>
  <path class="cls-2" d="M169.72,9.41c1.93,1.3,7.95,7.75,7.53,17.43-.3,6.77-4.66,13.43-6.56,15.3-.4.39-.74.71-.97.93"/>
  <path class="cls-1" d="M101.51.71c-.03-.18-3.75,19.72-3.75,19.72l17.23-2.79,2.34-11.11"/>
  <polyline points="140.86 3.53 144.92 2.92 145.76 6.52"/>
  <path class="cls-3" d="M9.34,58.53v4.15c0,1.31-.71,2.01-2.05,2.01H2.73v-8.18h4.56c1.34,0,2.05.7,2.05,2.01ZM6.59,58.46h-1.58v4.29h1.58c.34,0,.46-.11.46-.45v-3.4c0-.33-.11-.45-.46-.45Z"/>
  <path class="cls-3" d="M12.81,56.51h3.35l2.49,8.18h-2.34l-.46-1.61h-2.72l-.47,1.61h-2.34l2.49-8.18ZM15.29,61.13l-.8-2.8-.81,2.8h1.61Z"/>
  <path class="cls-3" d="M19.95,56.51h2.21l2.65,4.37v-4.37h2.29v8.18h-2.21l-2.65-4.37v4.37h-2.29v-8.18Z"/>
  <path class="cls-3" d="M28.73,62.79c0-.14,0-.15.01-.18l2.28-.27v.08c0,.33.11.44.46.44h1.35c.34,0,.46-.11.46-.44v-.23c0-.28-.12-.34-.72-.43l-1.83-.26c-1.42-.21-1.97-.72-1.97-1.87v-1.2c0-1.32.71-2.01,2.05-2.01h2.68c1.34,0,2.05.7,2.05,2.01,0,.13,0,.14-.01.18l-2.27.27v-.08c0-.33-.12-.45-.46-.45h-1.26c-.36,0-.48.13-.48.45v.19c0,.3.08.34.73.43l1.83.26c1.43.21,1.96.72,1.96,1.9v1.21c0,1.31-.71,2.01-2.05,2.01h-2.74c-1.34,0-2.05-.7-2.05-2.01Z"/>
  <path class="cls-3" d="M37.23,56.51h2.29v3.08h.57l1.93-3.08h2.65l-2.57,4.06,2.69,4.12h-2.66l-2.05-3.16h-.56v3.16h-2.29v-8.18Z"/>
  <path class="cls-3" d="M53.69,61.53h-2.44v3.16h-2.29v-8.18h2.29v3.08h2.44v-3.08h2.29v8.18h-2.29v-3.16Z"/>
  <path class="cls-3" d="M62.46,64.8h-2.6c-1.34,0-2.05-.7-2.05-2.01v-6.28h2.29v5.9c0,.33.11.44.46.44h1.2c.34,0,.46-.11.46-.44v-5.9h2.29v6.28c0,1.31-.71,2.01-2.05,2.01Z"/>
  <path class="cls-3" d="M66.29,56.51h2.21l2.65,4.37v-4.37h2.29v8.18h-2.21l-2.65-4.37v4.37h-2.29v-8.18Z"/>
  <path class="cls-3" d="M81.86,58.53v4.15c0,1.31-.71,2.01-2.05,2.01h-4.56v-8.18h4.56c1.34,0,2.05.7,2.05,2.01ZM79.11,58.46h-1.58v4.29h1.58c.34,0,.46-.11.46-.45v-3.4c0-.33-.11-.45-.46-.45Z"/>
  <path class="cls-3" d="M85.87,58.46v1.09h3.06v1.94h-3.06v1.26h3.54v1.94h-5.83v-8.18h5.83v1.94h-3.54Z"/>
  <path class="cls-3" d="M91.07,56.51h2.29v3.08h.57l1.93-3.08h2.65l-2.57,4.06,2.69,4.12h-2.66l-2.05-3.16h-.56v3.16h-2.29v-8.18Z"/>
  <path class="cls-3" d="M106.3,58.41v4.38c0,1.31-.71,2.01-2.05,2.01h-2.71c-1.34,0-2.05-.7-2.05-2.01v-4.38c0-1.32.71-2.01,2.05-2.01h2.71c1.34,0,2.05.7,2.05,2.01ZM103.55,58.34h-1.31c-.34,0-.46.11-.46.45v3.63c0,.33.12.44.46.44h1.31c.34,0,.46-.11.46-.44v-3.63c0-.33-.11-.45-.46-.45Z"/>
  <path class="cls-3" d="M107.99,56.51h2.21l2.65,4.37v-4.37h2.29v8.18h-2.21l-2.65-4.37v4.37h-2.29v-8.18Z"/>
  <path class="cls-3" d="M118.66,58.46h-2.23v-1.94h6.75v1.94h-2.23v6.23h-2.29v-6.23Z"/>
  <path class="cls-3" d="M124.5,56.51h4.56c1.34,0,2.05.7,2.05,2.01v1.35c0,.91-.34,1.53-1.01,1.82l1.96,3h-2.66l-1.82-2.8h-.79v2.8h-2.29v-8.18ZM128.36,59.94c.34,0,.46-.11.46-.44v-.59c0-.33-.11-.45-.46-.45h-1.58v1.49h1.58Z"/>
  <path class="cls-3" d="M139.61,58.41v4.38c0,1.31-.71,2.01-2.05,2.01h-2.71c-1.34,0-2.05-.7-2.05-2.01v-4.38c0-1.32.71-2.01,2.05-2.01h2.71c1.34,0,2.05.7,2.05,2.01ZM136.87,58.34h-1.31c-.34,0-.46.11-.46.45v3.63c0,.33.12.44.46.44h1.31c.34,0,.46-.11.46-.44v-3.63c0-.33-.11-.45-.46-.45Z"/>
  <path class="cls-3" d="M141.33,56.51h2.29v6.23h3.43v1.94h-5.72v-8.18Z"/>
</svg>