<?xml version="1.0" encoding="UTF-8"?>
<svg id="Layer_1" data-name="Layer 1" xmlns="http://www.w3.org/2000/svg" viewBox="0 0 179.27 48.96">
  <defs>
    <style>
      .cls-1 {
        stroke: #000;
        stroke-linecap: round;
      }

      .cls-1, .cls-2 {
        stroke-miterlimit: 10;
      }

      .cls-1, .cls-3 {
        fill: #fff;
      }

      .cls-2 {
        fill: none;
        stroke: #fff;
        stroke-width: 4px;
      }
    </style>
  </defs>
  <g>
    <path class="cls-3" d="M0,0h22.11c4.36,0,7.88.59,10.56,1.77,2.68,1.18,4.9,2.88,6.65,5.09,1.75,2.21,3.02,4.78,3.81,7.72.79,2.93,1.18,6.04,1.18,9.33,0,5.15-.59,9.14-1.76,11.97-1.17,2.84-2.8,5.21-4.88,7.13-2.08,1.92-4.31,3.19-6.7,3.83-3.26.88-6.22,1.31-8.87,1.31H0V0ZM20.74,16.58c-1.99-.05-3.99-.09-5.98-.14v15.14h5.93c4.25.1,7.76-3.39,7.72-7.57-.04-4.11-3.5-7.5-7.67-7.43Z"/>
    <path class="cls-3" d="M48.97.71h16.3v15.93h13.17V.71h16.71l-.33,48.26h-16.44l.1-15.88-13.25.17-.05,15.62-16.22.09V.71Z"/>
    <path class="cls-3" d="M102.07.63l15.91-.13,5.83,4.26,21.85-3,2.21,8.61-20.22,13.03,20.4,25.25h-19.83l-10.29-12.5.07-.07v12.58h-15.93V.63Z"/>
  </g>
  <path class="cls-2" d="M151.93,19.14c.81.55,3.36,3.27,3.18,7.35-.13,2.86-1.97,5.67-2.77,6.45-.17.16-.31.3-.41.39"/>
  <path class="cls-2" d="M160,13.77c1.43.97,5.89,5.74,5.58,12.91-.22,5.01-3.45,9.95-4.86,11.33-.29.29-.54.52-.72.69"/>
  <path class="cls-2" d="M169.72,9.41c1.93,1.3,7.95,7.75,7.53,17.43-.3,6.77-4.66,13.43-6.56,15.3-.4.39-.74.71-.97.93"/>
  <path class="cls-1" d="M101.51.71c-.03-.18-3.75,19.72-3.75,19.72l17.23-2.79,2.34-11.11"/>
  <polyline points="140.86 3.53 144.92 2.92 145.76 6.52"/>
</svg>