<svg width="71" height="71" viewBox="0 0 71 71" fill="none" xmlns="http://www.w3.org/2000/svg">
<path d="M16.5885 43.9726C18.2813 47.4695 20.935 50.412 24.2391 52.4558C27.5433 54.4995 31.3611 55.56 35.2459 55.5131C39.1308 55.4662 42.9219 54.314 46.1757 52.1911C49.4296 50.0682 52.0116 47.0625 53.6195 43.5258C55.2275 39.989 55.7949 36.0675 55.2555 32.22C54.716 28.3725 53.092 24.7583 50.5734 21.8001C48.0548 18.8419 44.7458 16.6622 41.0336 15.5161C37.3214 14.3699 33.3595 14.3046 29.6116 15.3279C32.8081 17.4021 35.154 20.5546 36.2226 24.2121C37.2912 27.8697 37.0115 31.7893 35.4345 35.2581C33.8574 38.7268 31.0877 41.5144 27.6291 43.1136C24.1705 44.7129 20.2528 45.0177 16.5885 43.9726Z" fill="#E9EDE7"/>
</svg>
